<?xml version="1.0" standalone="no"?>
<!DOCTYPE svg PUBLIC "-//W3C//DTD SVG 20010904//EN"
 "http://www.w3.org/TR/2001/REC-SVG-20010904/DTD/svg10.dtd">
<svg version="1.0" xmlns="http://www.w3.org/2000/svg"
 width="700.000000pt" height="700.000000pt" viewBox="0 0 700.000000 700.000000"
 preserveAspectRatio="xMidYMid meet">
<metadata>
Created by potrace 1.14, written by Peter Selinger 2001-2017
</metadata>
<g transform="translate(0.000000,700.000000) scale(0.100000,-0.100000)"
fill="#000000" stroke="none">
<path d="M0 3500 l0 -3500 3500 0 3500 0 0 3500 0 3500 -3500 0 -3500 0 0
-3500z m6980 2885 l0 -595 -3480 0 -3480 0 0 595 0 595 3480 0 3480 0 0 -595z
m-6090 -846 c118 -63 183 -171 182 -304 0 -80 -18 -137 -63 -200 -67 -94 -204
-154 -315 -140 -113 14 -230 100 -277 203 -33 72 -31 208 4 282 62 132 183
204 331 196 63 -3 88 -10 138 -37z m5613 -121 c93 -52 134 -176 88 -266 -26
-51 -55 -79 -106 -103 -39 -18 -123 -19 -2475 -19 -2347 0 -2436 1 -2476 19
-66 30 -124 118 -124 187 0 98 88 193 190 206 14 2 1113 2 2444 1 l2419 -3 40
-22z m-5649 -1009 c146 -54 241 -218 216 -372 -45 -277 -382 -386 -580 -187
-73 73 -95 127 -95 240 0 84 3 101 27 146 49 93 109 145 206 180 57 20 163 17
226 -7z m5600 -120 c122 -31 189 -170 137 -284 -23 -51 -79 -101 -128 -114
-59 -17 -4852 -15 -4907 1 -60 18 -120 83 -135 146 -7 28 -10 66 -6 84 17 81
82 150 159 168 52 13 4830 12 4880 -1z m-5650 -1014 c90 -15 190 -93 235 -183
84 -167 12 -376 -158 -459 -49 -25 -67 -28 -151 -28 -89 0 -99 2 -158 34 -67
36 -114 86 -153 161 -20 38 -24 59 -24 140 0 109 18 156 86 234 60 67 189 121
264 110 11 -1 38 -6 59 -9z m5659 -136 c80 -22 146 -111 147 -197 0 -80 -40
-145 -115 -185 l-40 -22 -2445 0 -2445 0 -47 28 c-82 48 -122 145 -97 235 15
55 78 122 129 139 48 15 4858 18 4913 2z m-5650 -1013 c106 -25 205 -113 243
-218 24 -63 21 -171 -5 -240 -29 -75 -99 -149 -176 -185 -51 -24 -73 -28 -145
-28 -72 0 -93 4 -140 27 -72 35 -136 99 -169 168 -35 74 -37 210 -4 282 43 93
141 174 240 197 55 13 91 12 156 -3z m5684 -151 c32 -16 61 -41 79 -67 25 -36
29 -50 29 -114 0 -64 -3 -77 -30 -115 -17 -24 -50 -53 -75 -66 l-45 -23 -2443
0 c-2032 0 -2448 2 -2475 13 -65 28 -127 121 -127 193 0 37 30 108 58 138 15
16 45 37 67 47 39 18 126 19 2476 19 l2435 0 51 -25z m-5621 -1019 c243 -111
267 -451 42 -596 -105 -69 -219 -76 -334 -21 -68 32 -136 101 -167 169 -31 67
-31 207 0 274 25 54 90 129 141 160 89 55 216 60 318 14z m5625 -129 c24 -13
58 -43 74 -66 27 -38 30 -51 30 -115 0 -63 -4 -78 -27 -112 -15 -21 -44 -50
-65 -64 l-37 -25 -2445 -3 c-2729 -3 -2495 -9 -2565 68 -33 37 -56 92 -56 135
0 70 51 149 119 185 35 19 97 19 2482 20 l2446 0 44 -23z"/>
</g>
</svg>
